<svg width="129" height="36" viewBox="0 0 129 36" fill="none" xmlns="http://www.w3.org/2000/svg">
<rect width="129" height="36" fill="#F5F5F5"/>
<g clip-path="url(#clip0_0_1)">
<path d="M10.758 4.1355L15.621 9H20.3775L25.242 4.137C25.5235 3.85554 25.9052 3.69741 26.3033 3.69741C26.7013 3.69741 27.083 3.85554 27.3645 4.137C27.646 4.41846 27.8041 4.8002 27.8041 5.19825C27.8041 5.59629 27.646 5.97804 27.3645 6.2595L24.621 9H27.75C28.4394 9 29.1221 9.13579 29.7591 9.39963C30.396 9.66347 30.9748 10.0502 31.4623 10.5377C31.9498 11.0252 32.3365 11.6039 32.6004 12.2409C32.8642 12.8779 33 13.5606 33 14.25V26.25C33 26.9394 32.8642 27.6221 32.6004 28.2591C32.3365 28.896 31.9498 29.4748 31.4623 29.9623C30.9748 30.4498 30.396 30.8365 29.7591 31.1004C29.1221 31.3642 28.4394 31.5 27.75 31.5H8.25C7.56056 31.5 6.87787 31.3642 6.24091 31.1004C5.60395 30.8365 5.0252 30.4498 4.53769 29.9623C4.05018 29.4748 3.66347 28.896 3.39963 28.2591C3.1358 27.6221 3 26.9394 3 26.25V14.25C3 13.5606 3.1358 12.8779 3.39963 12.2409C3.66347 11.6039 4.05018 11.0252 4.53769 10.5377C5.0252 10.0502 5.60395 9.66347 6.24091 9.39963C6.87787 9.13579 7.56056 9 8.25 9H11.3775L8.6355 6.2565C8.49613 6.11713 8.38558 5.95168 8.31016 5.76959C8.23474 5.5875 8.19592 5.39234 8.19592 5.19525C8.19592 4.7972 8.35404 4.41546 8.6355 4.134C8.91696 3.85254 9.2987 3.69441 9.69675 3.69441C9.89384 3.69441 10.089 3.73323 10.2711 3.80866C10.4532 3.88408 10.6186 3.99463 10.758 4.134V4.1355ZM27.75 12H8.25C7.69068 12 7.15141 12.2084 6.73737 12.5844C6.32333 12.9605 6.06419 13.4773 6.0105 14.034L6 14.25V26.25C6.00003 26.8093 6.20838 27.3486 6.58443 27.7626C6.96048 28.1767 7.47726 28.4358 8.034 28.4895L8.25 28.5H27.75C28.3091 28.5 28.8482 28.2919 29.2622 27.9161C29.6762 27.5404 29.9355 27.024 29.9895 26.4675L30 26.25V14.25C30 13.6533 29.7629 13.081 29.341 12.659C28.919 12.237 28.3467 12 27.75 12ZM12 16.5C12.3978 16.5 12.7794 16.658 13.0607 16.9393C13.342 17.2206 13.5 17.6022 13.5 18V21C13.5 21.197 13.4613 21.3921 13.3859 21.5741C13.3105 21.7561 13.2 21.9215 13.0607 22.0608C12.9214 22.2001 12.7561 22.3106 12.5741 22.386C12.3921 22.4614 12.197 22.5002 12 22.5002C11.803 22.5002 11.6079 22.4614 11.4259 22.386C11.2439 22.3106 11.0785 22.2001 10.9393 22.0608C10.8 21.9215 10.6895 21.7561 10.6141 21.5741C10.5387 21.3921 10.5 21.197 10.5 21V18C10.5 17.6022 10.658 17.2206 10.9393 16.9393C11.2206 16.658 11.6022 16.5 12 16.5ZM24 16.5C24.3978 16.5 24.7794 16.658 25.0607 16.9393C25.342 17.2206 25.5 17.6022 25.5 18V21C25.5 21.197 25.4613 21.3921 25.3859 21.5741C25.3105 21.7561 25.2 21.9215 25.0607 22.0608C24.9215 22.2001 24.7561 22.3106 24.5741 22.386C24.3921 22.4614 24.197 22.5002 24 22.5002C23.803 22.5002 23.6079 22.4614 23.4259 22.386C23.2439 22.3106 23.0786 22.2001 22.9393 22.0608C22.8 21.9215 22.6895 21.7561 22.6141 21.5741C22.5387 21.3921 22.5 21.197 22.5 21V18C22.5 17.6022 22.658 17.2206 22.9393 16.9393C23.2206 16.658 23.6022 16.5 24 16.5Z" fill="black"/>
<path d="M36.5625 24V15.2727H40.3466C41.0114 15.2727 41.5696 15.3622 42.0213 15.5412C42.4759 15.7202 42.8182 15.973 43.0483 16.2997C43.2813 16.6264 43.3977 17.0114 43.3977 17.4545C43.3977 17.7756 43.3267 18.0682 43.1847 18.3324C43.0455 18.5966 42.8494 18.8182 42.5966 18.9972C42.3438 19.1733 42.0483 19.2955 41.7102 19.3636V19.4489C42.0852 19.4631 42.4261 19.5582 42.733 19.7344C43.0398 19.9077 43.2841 20.1477 43.4659 20.4545C43.6477 20.7585 43.7386 21.1165 43.7386 21.5284C43.7386 22.0057 43.6136 22.4304 43.3636 22.8026C43.1165 23.1747 42.7642 23.4673 42.3068 23.6804C41.8494 23.8935 41.304 24 40.6705 24H36.5625ZM38.9318 22.108H40.0398C40.4375 22.108 40.7358 22.0341 40.9347 21.8864C41.1335 21.7358 41.233 21.5142 41.233 21.2216C41.233 21.017 41.1861 20.8437 41.0923 20.7017C40.9986 20.5597 40.8651 20.4517 40.6918 20.3778C40.5213 20.304 40.3153 20.267 40.0739 20.267H38.9318V22.108ZM38.9318 18.8011H39.9034C40.1108 18.8011 40.294 18.7685 40.4531 18.7031C40.6122 18.6378 40.7358 18.544 40.8239 18.4219C40.9148 18.2969 40.9602 18.1449 40.9602 17.9659C40.9602 17.696 40.8636 17.4901 40.6705 17.348C40.4773 17.2031 40.233 17.1307 39.9375 17.1307H38.9318V18.8011ZM50.4474 15.2727V24H48.0781V15.2727H50.4474ZM55.0703 24V15.2727H57.4396V22.0909H60.968V24H55.0703ZM67.7951 15.2727V24H65.4258V15.2727H67.7951ZM72.418 24V15.2727H76.2021C76.8668 15.2727 77.4251 15.3622 77.8768 15.5412C78.3313 15.7202 78.6737 15.973 78.9038 16.2997C79.1367 16.6264 79.2532 17.0114 79.2532 17.4545C79.2532 17.7756 79.1822 18.0682 79.0401 18.3324C78.9009 18.5966 78.7049 18.8182 78.4521 18.9972C78.1992 19.1733 77.9038 19.2955 77.5657 19.3636V19.4489C77.9407 19.4631 78.2816 19.5582 78.5884 19.7344C78.8952 19.9077 79.1396 20.1477 79.3214 20.4545C79.5032 20.7585 79.5941 21.1165 79.5941 21.5284C79.5941 22.0057 79.4691 22.4304 79.2191 22.8026C78.9719 23.1747 78.6197 23.4673 78.1623 23.6804C77.7049 23.8935 77.1594 24 76.5259 24H72.418ZM74.7873 22.108H75.8952C76.293 22.108 76.5913 22.0341 76.7901 21.8864C76.989 21.7358 77.0884 21.5142 77.0884 21.2216C77.0884 21.017 77.0415 20.8437 76.9478 20.7017C76.854 20.5597 76.7205 20.4517 76.5472 20.3778C76.3768 20.304 76.1708 20.267 75.9293 20.267H74.7873V22.108ZM74.7873 18.8011H75.7589C75.9663 18.8011 76.1495 18.7685 76.3086 18.7031C76.4677 18.6378 76.5913 18.544 76.6793 18.4219C76.7702 18.2969 76.8157 18.1449 76.8157 17.9659C76.8157 17.696 76.7191 17.4901 76.5259 17.348C76.3327 17.2031 76.0884 17.1307 75.793 17.1307H74.7873V18.8011ZM86.3029 15.2727V24H83.9336V15.2727H86.3029ZM90.9258 24V15.2727H93.2951V22.0909H96.8235V24H90.9258ZM103.651 15.2727V24H101.281V15.2727H103.651Z" fill="black"/>
</g>
<defs>
<clipPath id="clip0_0_1">
<rect width="129" height="36" fill="white"/>
</clipPath>
</defs>
</svg>
