<svg width="129" height="36" viewBox="0 0 129 36" fill="none" xmlns="http://www.w3.org/2000/svg">
<g clip-path="url(#clip0_1_2)">
<path d="M10.758 4.1355L15.621 9H20.3775L25.242 4.137C25.5235 3.85554 25.9052 3.69741 26.3033 3.69741C26.7013 3.69741 27.083 3.85554 27.3645 4.137C27.646 4.41846 27.8041 4.8002 27.8041 5.19825C27.8041 5.59629 27.646 5.97804 27.3645 6.2595L24.621 9H27.75C28.4394 9 29.1221 9.13579 29.7591 9.39963C30.396 9.66347 30.9748 10.0502 31.4623 10.5377C31.9498 11.0252 32.3365 11.6039 32.6004 12.2409C32.8642 12.8779 33 13.5606 33 14.25V26.25C33 26.9394 32.8642 27.6221 32.6004 28.2591C32.3365 28.896 31.9498 29.4748 31.4623 29.9623C30.9748 30.4498 30.396 30.8365 29.7591 31.1004C29.1221 31.3642 28.4394 31.5 27.75 31.5H8.25C7.56056 31.5 6.87787 31.3642 6.24091 31.1004C5.60395 30.8365 5.0252 30.4498 4.53769 29.9623C4.05018 29.4748 3.66347 28.896 3.39963 28.2591C3.1358 27.6221 3 26.9394 3 26.25V14.25C3 13.5606 3.1358 12.8779 3.39963 12.2409C3.66347 11.6039 4.05018 11.0252 4.53769 10.5377C5.0252 10.0502 5.60395 9.66347 6.24091 9.39963C6.87787 9.13579 7.56056 9 8.25 9H11.3775L8.6355 6.2565C8.49613 6.11713 8.38558 5.95168 8.31016 5.76959C8.23474 5.5875 8.19592 5.39234 8.19592 5.19525C8.19592 4.7972 8.35404 4.41546 8.6355 4.134C8.91696 3.85254 9.2987 3.69441 9.69675 3.69441C9.89384 3.69441 10.089 3.73323 10.2711 3.80866C10.4532 3.88408 10.6186 3.99463 10.758 4.134V4.1355ZM27.75 12H8.25C7.69068 12 7.15141 12.2084 6.73737 12.5844C6.32333 12.9605 6.06419 13.4773 6.0105 14.034L6 14.25V26.25C6.00003 26.8093 6.20838 27.3486 6.58443 27.7626C6.96048 28.1767 7.47726 28.4358 8.034 28.4895L8.25 28.5H27.75C28.3091 28.5 28.8482 28.2919 29.2622 27.9161C29.6762 27.5404 29.9355 27.024 29.9895 26.4675L30 26.25V14.25C30 13.6533 29.7629 13.081 29.341 12.659C28.919 12.237 28.3467 12 27.75 12ZM12 16.5C12.3978 16.5 12.7794 16.658 13.0607 16.9393C13.342 17.2206 13.5 17.6022 13.5 18V21C13.5 21.197 13.4613 21.3921 13.3859 21.5741C13.3105 21.7561 13.2 21.9215 13.0607 22.0608C12.9214 22.2001 12.7561 22.3106 12.5741 22.386C12.3921 22.4614 12.197 22.5002 12 22.5002C11.803 22.5002 11.6079 22.4614 11.4259 22.386C11.2439 22.3106 11.0785 22.2001 10.9393 22.0608C10.8 21.9215 10.6895 21.7561 10.6141 21.5741C10.5387 21.3921 10.5 21.197 10.5 21V18C10.5 17.6022 10.658 17.2206 10.9393 16.9393C11.2206 16.658 11.6022 16.5 12 16.5ZM24 16.5C24.3978 16.5 24.7794 16.658 25.0607 16.9393C25.342 17.2206 25.5 17.6022 25.5 18V21C25.5 21.197 25.4613 21.3921 25.3859 21.5741C25.3105 21.7561 25.2 21.9215 25.0607 22.0608C24.9215 22.2001 24.7561 22.3106 24.5741 22.386C24.3921 22.4614 24.197 22.5002 24 22.5002C23.803 22.5002 23.6079 22.4614 23.4259 22.386C23.2439 22.3106 23.0785 22.2001 22.9393 22.0608C22.8 21.9215 22.6895 21.7561 22.6141 21.5741C22.5387 21.3921 22.5 21.197 22.5 21V18C22.5 17.6022 22.658 17.2206 22.9393 16.9393C23.2206 16.658 23.6022 16.5 24 16.5Z" fill="black"/>
<path d="M37.6733 26V12.1818H42.5043C43.4669 12.1818 44.2608 12.3482 44.886 12.6811C45.5112 13.0095 45.9768 13.4525 46.2827 14.0103C46.5885 14.5636 46.7415 15.1776 46.7415 15.8523C46.7415 16.446 46.6358 16.9363 46.4244 17.3232C46.2174 17.71 45.9431 18.0159 45.6012 18.2408C45.2638 18.4657 44.8973 18.6321 44.5014 18.7401V18.875C44.9242 18.902 45.3493 19.0504 45.7766 19.3203C46.204 19.5902 46.5616 19.977 46.8494 20.4808C47.1373 20.9846 47.2812 21.6009 47.2812 22.3295C47.2812 23.0223 47.1238 23.6452 46.8089 24.1985C46.4941 24.7518 45.997 25.1903 45.3178 25.5142C44.6386 25.8381 43.7547 26 42.6662 26H37.6733ZM39.3466 24.5156H42.6662C43.7592 24.5156 44.5352 24.3042 44.994 23.8814C45.4573 23.4541 45.6889 22.9368 45.6889 22.3295C45.6889 21.8617 45.5697 21.4299 45.3313 21.0341C45.0929 20.6338 44.7533 20.3144 44.3125 20.076C43.8717 19.8331 43.3499 19.7116 42.7472 19.7116H39.3466V24.5156ZM39.3466 18.2543H42.4503C42.9541 18.2543 43.4084 18.1553 43.8132 17.9574C44.2225 17.7595 44.5464 17.4806 44.7848 17.1207C45.0277 16.7609 45.1491 16.3381 45.1491 15.8523C45.1491 15.245 44.9377 14.73 44.5149 14.3072C44.0921 13.8799 43.4219 13.6662 42.5043 13.6662H39.3466V18.2543ZM55.204 12.1818V26H53.5307V12.1818H55.204ZM62.059 26V12.1818H63.7323V24.5156H70.1556V26H62.059ZM77.9198 12.1818V26H76.2465V12.1818H77.9198ZM84.7749 26V12.1818H89.6058C90.5684 12.1818 91.3623 12.3482 91.9876 12.6811C92.6128 13.0095 93.0784 13.4525 93.3842 14.0103C93.6901 14.5636 93.843 15.1776 93.843 15.8523C93.843 16.446 93.7373 16.9363 93.5259 17.3232C93.319 17.71 93.0446 18.0159 92.7028 18.2408C92.3654 18.4657 91.9988 18.6321 91.603 18.7401V18.875C92.0258 18.902 92.4509 19.0504 92.8782 19.3203C93.3055 19.5902 93.6631 19.977 93.951 20.4808C94.2389 20.9846 94.3828 21.6009 94.3828 22.3295C94.3828 23.0223 94.2254 23.6452 93.9105 24.1985C93.5956 24.7518 93.0986 25.1903 92.4194 25.5142C91.7402 25.8381 90.8563 26 89.7678 26H84.7749ZM86.4482 24.5156H89.7678C90.8608 24.5156 91.6367 24.3042 92.0955 23.8814C92.5588 23.4541 92.7905 22.9368 92.7905 22.3295C92.7905 21.8617 92.6713 21.4299 92.4329 21.0341C92.1945 20.6338 91.8549 20.3144 91.4141 20.076C90.9732 19.8331 90.4515 19.7116 89.8487 19.7116H86.4482V24.5156ZM86.4482 18.2543H89.5518C90.0556 18.2543 90.5099 18.1553 90.9148 17.9574C91.3241 17.7595 91.648 17.4806 91.8864 17.1207C92.1293 16.7609 92.2507 16.3381 92.2507 15.8523C92.2507 15.245 92.0393 14.73 91.6165 14.3072C91.1937 13.8799 90.5234 13.6662 89.6058 13.6662H86.4482V18.2543ZM102.306 12.1818V26H100.632V12.1818H102.306ZM109.161 26V12.1818H110.834V24.5156H117.257V26H109.161ZM125.021 12.1818V26H123.348V12.1818H125.021Z" fill="black"/>
</g>
<defs>
<clipPath id="clip0_1_2">
<rect width="129" height="36" fill="white"/>
</clipPath>
</defs>
</svg>
