<svg width="428" height="155" viewBox="0 0 428 155" fill="none" xmlns="http://www.w3.org/2000/svg">
<path fill-rule="evenodd" clip-rule="evenodd" d="M70.7833 30L43.7667 2.975V2.96667C42.9924 2.19242 42.0732 1.57825 41.0616 1.15923C40.05 0.740204 38.9658 0.524536 37.8708 0.524536C35.6595 0.524536 33.5387 1.403 31.975 2.96667C30.4113 4.53034 29.5329 6.65114 29.5329 8.8625C29.5329 9.95746 29.7485 11.0417 30.1675 12.0533C30.5866 13.0649 31.2007 13.9841 31.975 14.7583L47.2083 30H29.8333C26.0031 30 22.2104 30.7544 18.6717 32.2202C15.1331 33.6859 11.9178 35.8343 9.20937 38.5427C6.501 41.2511 4.3526 44.4664 2.88684 48.0051C1.42107 51.5437 0.666656 55.3365 0.666656 59.1667V125.833C0.666656 129.664 1.42107 133.456 2.88684 136.995C4.3526 140.534 6.501 143.749 9.20937 146.457C11.9178 149.166 15.1331 151.314 18.6717 152.78C22.2104 154.246 26.0031 155 29.8333 155H138.167C141.997 155 145.79 154.246 149.328 152.78C152.867 151.314 156.082 149.166 158.791 146.457C161.499 143.749 163.647 140.534 165.113 136.995C166.579 133.456 167.333 129.664 167.333 125.833V59.1667C167.333 55.3365 166.579 51.5437 165.113 48.0051C163.647 44.4664 161.499 41.2511 158.791 38.5427C156.082 35.8343 152.867 33.6859 149.328 32.2202C145.79 30.7544 141.997 30 138.167 30H120.783L136.025 14.775C137.589 13.2113 138.467 11.0905 138.467 8.87917C138.467 6.6678 137.589 4.54701 136.025 2.98334C134.461 1.41966 132.341 0.541202 130.129 0.541202C127.918 0.541202 125.797 1.41966 124.233 2.98334L97.2083 30H70.7833ZM29.8333 46.6667H138.167C141.482 46.6667 144.661 47.9836 147.005 50.3278C149.35 52.672 150.667 55.8515 150.667 59.1667V125.833L150.608 127.042C150.308 130.133 148.868 133.002 146.568 135.09C144.268 137.177 141.273 138.333 138.167 138.333H29.8333L28.6333 138.275C25.5403 137.977 22.6693 136.537 20.5801 134.237C18.491 131.937 17.3335 128.941 17.3333 125.833V59.1667L17.3917 57.9667C17.69 54.8737 19.1296 52.0027 21.4298 49.9135C23.7301 47.8243 26.726 46.6668 29.8333 46.6667ZM56.5592 74.1074C54.9964 72.5446 52.8768 71.6667 50.6667 71.6667C48.4565 71.6667 46.3369 72.5446 44.7741 74.1074C43.2113 75.6703 42.3333 77.7899 42.3333 80V96.6667C42.3332 97.7611 42.5486 98.8449 42.9673 99.8561C43.386 100.867 43.9998 101.786 44.7736 102.56C45.5475 103.334 46.4662 103.948 47.4773 104.367C48.4885 104.786 49.5722 105.001 50.6667 105.001C51.7611 105.001 52.8448 104.786 53.856 104.367C54.8671 103.948 55.7858 103.334 56.5597 102.56C57.3335 101.786 57.9473 100.867 58.366 99.8561C58.7847 98.8449 59.0002 97.7611 59 96.6667V80C59 77.7899 58.122 75.6703 56.5592 74.1074ZM123.226 74.1074C121.663 72.5446 119.543 71.6667 117.333 71.6667C115.123 71.6667 113.004 72.5446 111.441 74.1074C109.878 75.6703 109 77.7899 109 80V96.6667C109 97.7611 109.215 98.8449 109.634 99.8561C110.053 100.867 110.666 101.786 111.44 102.56C112.214 103.334 113.133 103.948 114.144 104.367C115.155 104.786 116.239 105.001 117.333 105.001C118.428 105.001 119.512 104.786 120.523 104.367C121.534 103.948 122.452 103.334 123.226 102.56C124 101.786 124.614 100.867 125.033 99.8561C125.451 98.8449 125.667 97.7611 125.667 96.6667V80C125.667 77.7899 124.789 75.6703 123.226 74.1074ZM198.437 95.6563V106.563H205.594C207.094 106.563 208.292 106.333 209.187 105.875C210.104 105.396 210.76 104.771 211.156 104C211.573 103.208 211.781 102.333 211.781 101.375C211.781 100.208 211.583 99.1979 211.187 98.3438C210.812 97.4896 210.208 96.8333 209.375 96.375C208.542 95.8958 207.427 95.6563 206.031 95.6563H198.437ZM215.475 91.7684C215.872 91.6129 216.245 91.4401 216.594 91.25C218.448 90.2292 219.771 88.9063 220.562 87.2813C221.354 85.6563 221.75 83.9167 221.75 82.0625C221.75 79.9375 221.344 78.0938 220.531 76.5313C219.719 74.9479 218.531 73.6354 216.969 72.5938C215.427 71.5521 213.552 70.7813 211.344 70.2813C209.135 69.7604 206.625 69.5 203.812 69.5H187.469V115H191.656H198.437H205.594C209.344 115 212.49 114.5 215.031 113.5C217.573 112.5 219.479 111 220.75 109C222.042 107 222.687 104.51 222.687 101.531C222.687 99.7813 222.302 98.1042 221.531 96.5C220.76 94.8958 219.479 93.6042 217.687 92.625C217.036 92.2647 216.298 91.9792 215.475 91.7684ZM203.75 88.4688C205.458 88.4688 206.823 88.2813 207.844 87.9063C208.865 87.5104 209.604 86.9375 210.062 86.1875C210.542 85.4375 210.781 84.5 210.781 83.375C210.781 82.0833 210.542 81.0417 210.062 80.25C209.583 79.4583 208.823 78.8854 207.781 78.5313C206.76 78.1563 205.437 77.9688 203.812 77.9688H198.437V88.4688H203.75ZM248.406 115V81.1875H237.844V115H248.406ZM238.844 68.7813C237.76 69.7396 237.219 70.9688 237.219 72.4688C237.219 73.9688 237.76 75.1979 238.844 76.1563C239.927 77.1146 241.333 77.5938 243.062 77.5938C244.792 77.5938 246.198 77.1146 247.281 76.1563C248.365 75.1979 248.906 73.9688 248.906 72.4688C248.906 70.9688 248.365 69.7396 247.281 68.7813C246.198 67.8229 244.792 67.3438 243.062 67.3438C241.333 67.3438 239.927 67.8229 238.844 68.7813ZM275.031 115V67H264.469V115H275.031ZM301.656 115V81.1875H291.094V115H301.656ZM292.094 68.7813C291.01 69.7396 290.469 70.9688 290.469 72.4688C290.469 73.9688 291.01 75.1979 292.094 76.1563C293.177 77.1146 294.583 77.5938 296.312 77.5938C298.042 77.5938 299.448 77.1146 300.531 76.1563C301.615 75.1979 302.156 73.9688 302.156 72.4688C302.156 70.9688 301.615 69.7396 300.531 68.7813C299.448 67.8229 298.042 67.3438 296.312 67.3438C294.583 67.3438 293.177 67.8229 292.094 68.7813ZM327.781 67H317.25V115H326.687L327.141 111.555C327.995 112.683 329.001 113.603 330.156 114.313C331.615 115.188 333.365 115.625 335.406 115.625C337.656 115.625 339.604 115.208 341.25 114.375C342.896 113.542 344.26 112.365 345.344 110.844C346.427 109.302 347.229 107.479 347.75 105.375C348.271 103.271 348.531 100.938 348.531 98.375V97.7188C348.531 95.2396 348.271 92.9583 347.75 90.875C347.229 88.7917 346.427 86.9792 345.344 85.4375C344.26 83.8958 342.885 82.6979 341.219 81.8438C339.573 80.9896 337.615 80.5625 335.344 80.5625C333.323 80.5625 331.583 81.0104 330.125 81.9063C329.261 82.4322 328.48 83.0861 327.781 83.8679V67ZM327.781 104.875V91.3742C327.868 91.1991 327.962 91.0327 328.062 90.875C328.521 90.1667 329.125 89.625 329.875 89.25C330.646 88.875 331.594 88.6875 332.719 88.6875C333.823 88.6875 334.719 88.9271 335.406 89.4063C336.094 89.8854 336.625 90.5417 337 91.375C337.375 92.2083 337.635 93.1667 337.781 94.25C337.927 95.3333 338 96.4896 338 97.7188V98.375C338 99.7292 337.937 100.969 337.812 102.094C337.687 103.219 337.448 104.188 337.094 105C336.74 105.813 336.208 106.438 335.5 106.875C334.812 107.313 333.906 107.531 332.781 107.531C331.26 107.531 330.062 107.208 329.187 106.563C328.602 106.131 328.133 105.568 327.781 104.875ZM373.344 115V81.1875H362.781V115H373.344ZM363.781 68.7813C362.698 69.7396 362.156 70.9688 362.156 72.4688C362.156 73.9688 362.698 75.1979 363.781 76.1563C364.865 77.1146 366.271 77.5938 368 77.5938C369.729 77.5938 371.135 77.1146 372.219 76.1563C373.302 75.1979 373.844 73.9688 373.844 72.4688C373.844 70.9688 373.302 69.7396 372.219 68.7813C371.135 67.8229 369.729 67.3438 368 67.3438C366.271 67.3438 364.865 67.8229 363.781 68.7813ZM399.969 115V67H389.406V115H399.969ZM426.594 115V81.1875H416.031V115H426.594ZM417.031 68.7813C415.948 69.7396 415.406 70.9688 415.406 72.4688C415.406 73.9688 415.948 75.1979 417.031 76.1563C418.115 77.1146 419.521 77.5938 421.25 77.5938C422.979 77.5938 424.385 77.1146 425.469 76.1563C426.552 75.1979 427.094 73.9688 427.094 72.4688C427.094 70.9688 426.552 69.7396 425.469 68.7813C424.385 67.8229 422.979 67.3438 421.25 67.3438C419.521 67.3438 418.115 67.8229 417.031 68.7813Z" fill="black"/>
</svg>
